# xmcd
#
# Track frame offsets: 
#        150
#        15263
#        30805
#        45351
#        60844
#        77045
#        91939
#        110377
#        123628
#        138504
#
# Disc length: 2052 seconds
#
# Revision: 0
# Processed by: cddbd v1.5.2PL0 Copyright (c) Steve Scherf et al.
# Submitted via: ExactAudioCopy v0.95b4
#
DISCID=6708020a
DTITLE=Kratae - Sao Kard Laeng
DYEAR=1900
DGENRE=Pop
TTITLE0=Jarng mun ter
TTITLE1=Sawasdee kard laeng
TTITLE2=Sao kard laeng
TTITLE3=Ja ya ja dai
TTITLE4=Chong ya mong
TTITLE5=Bork ma luey
TTITLE6=Kum warn korn norn
TTITLE7=La orn
TTITLE8=Pah ched nah
TTITLE9=Sakid thom sao
EXTD=
EXTT0=
EXTT1=
EXTT2=
EXTT3=
EXTT4=
EXTT5=
EXTT6=
EXTT7=
EXTT8=
EXTT9=
PLAYORDER=
